<svg width="232.251999" height="119.296143" viewBox="0 0 232.252 119.296" fill="none" xmlns="http://www.w3.org/2000/svg" xmlns:xlink="http://www.w3.org/1999/xlink">
	<desc>
			Created with Pixso.
	</desc>
	<defs/>
	<path id="Emily" d="M48 38.1439C48 39.7652 46.592 40.5759 43.776 40.5759C41.216 40.5759 38.8267 40.1919 36.608 39.4239C34.3893 38.5706 32.3413 37.0772 30.464 34.9439C24.9173 36.9919 20.48 40.4906 17.152 45.4399C13.4827 51.2426 11.648 58.2399 11.648 66.4319C11.648 70.9546 12.672 74.7519 14.72 77.8239C16.768 80.8106 19.8827 82.3039 24.064 82.3039C31.4027 82.3039 37.6747 79.4452 42.88 73.7279C47.488 68.6079 49.792 63.2746 49.792 57.7279C49.792 52.0106 47.104 49.1519 41.728 49.1519C38.4853 49.1519 35.968 50.4746 34.176 53.1199C32.64 55.6799 31.872 58.7092 31.872 62.2079C31.872 63.9146 31.9573 65.1946 32.128 66.0479L33.024 68.8639L33.28 69.6319L33.024 70.0159L32.512 69.7599C29.3547 67.3706 27.776 63.7866 27.776 59.0079C27.776 55.9359 28.672 53.3759 30.464 51.3279C32.6827 48.9386 35.9253 47.7439 40.192 47.7439C47.5307 47.7439 51.2 51.0719 51.2 57.7279C51.2 63.5306 48.7253 69.1626 43.776 74.6239C38.4 80.6826 31.9573 83.7119 24.448 83.7119C16.512 83.7119 10.3253 81.4932 5.888 77.0559C1.96267 73.1306 9.53674e-07 68.3092 9.53674e-07 62.5919C9.53674e-07 55.4239 2.47467 49.1092 7.424 43.6479C12.4587 38.1012 19.584 34.5599 28.8 33.0239L27.52 30.8479L23.424 30.9759C17.9627 30.9759 13.44 30.2079 9.856 28.6719C5.16267 26.6239 2.816 23.3812 2.816 18.9439C2.816 13.5679 5.248 9.08791 10.112 5.50391C15.0613 1.83457 21.376 -9.15527e-05 29.056 -9.15527e-05L29.568 0.127907L29.824 0.383904L28.928 0.767906C25.6853 0.767906 22.7413 1.23724 20.096 2.1759C17.4507 3.02924 15.104 4.26657 13.056 5.88791C9.38667 8.78924 7.552 12.7146 7.552 17.6639C7.552 22.0159 9.77067 25.2586 14.208 27.3919C17.3653 28.8426 21.1627 29.5679 25.6 29.5679L27.008 29.5679L26.112 27.1359L25.984 24.5759C25.984 19.3706 28.032 14.8479 32.128 11.0079C36.8213 6.82658 42.9653 4.73591 50.56 4.73591C53.632 4.73591 55.936 5.37591 57.472 6.65591C59.008 7.85057 59.776 9.47191 59.776 11.5199C59.776 15.5306 57.728 19.3279 53.632 22.9119C49.024 26.9226 42.752 29.3119 34.816 30.0799L35.072 32.6399C39.424 32.6399 42.7947 33.3226 45.184 34.6879C46.8907 35.7119 47.8293 36.8639 48 38.1439ZM43.648 39.4239C45.2693 39.4239 46.1227 38.9546 46.208 38.0159C46.208 37.1626 45.2693 36.3092 43.392 35.4559C41.6 34.5172 39.5947 34.0479 37.376 34.0479L35.456 34.1759C36.6507 37.6746 39.3813 39.4239 43.648 39.4239ZM52.352 6.52791C44.928 6.52791 39.68 10.7946 36.608 19.3279L35.072 24.7039L34.688 29.0559C41.6853 28.2879 47.36 26.1546 51.712 22.6559C56.064 19.0719 58.24 15.5306 58.24 12.0319C58.24 10.4106 57.728 9.08791 56.704 8.0639C55.7653 7.03991 54.3147 6.52791 52.352 6.52791ZM96.366 54.1439L96.11 56.0639C97.902 53.7599 99.7367 51.7972 101.614 50.1759C104.003 48.2132 106.179 47.2319 108.142 47.2319C109.934 47.2319 111.342 47.9146 112.366 49.2799C113.39 50.5599 113.902 52.3092 113.902 54.5279C113.902 58.4532 112.537 62.3359 109.806 66.1759C109.123 67.1146 108.398 68.2239 107.63 69.5039C106.862 70.6986 106.222 71.8079 105.71 72.8319C104.771 74.8799 104.302 76.6719 104.302 78.2079C104.302 80.1706 105.326 81.1519 107.374 81.1519C109.337 81.1519 111.726 79.7012 114.542 76.7999C116.419 74.7519 118.937 71.2959 122.094 66.4319L123.246 65.6639L123.63 66.1759C123.459 67.0292 123.289 67.5412 123.118 67.7119C119.79 72.8319 117.059 76.4586 114.926 78.5919C111.769 81.5786 108.483 83.0719 105.07 83.0719C102.681 83.0719 100.761 82.5172 99.31 81.4079C97.9447 80.2986 97.262 78.5066 97.262 76.0319C97.262 73.3866 97.9447 70.6986 99.31 67.9679L102.51 62.2079L106.606 55.5519C107.886 53.4186 108.611 51.7119 108.782 50.4319C108.782 49.4079 108.142 48.8959 106.862 48.8959C105.155 48.8959 102.937 50.2612 100.206 52.9919C97.646 55.7226 95.1713 59.1359 92.782 63.2319L83.054 82.3039L73.966 82.3039L88.302 54.2719L88.814 52.9919C89.326 51.7972 89.582 50.9439 89.582 50.4319C89.582 49.4079 88.9847 48.8532 87.79 48.7679C86.0833 48.7679 83.694 50.4746 80.622 53.8879C78.574 56.1066 76.5687 58.7946 74.606 61.9519L64.11 82.3039L54.766 82.3039L69.87 53.8879L70.766 51.8399L71.278 50.1759C71.278 49.5786 70.8087 49.2372 69.87 49.1519C67.3953 49.1519 63.7687 52.2239 58.99 58.3679L52.334 67.5839L51.694 67.9679L50.926 67.3279L51.31 66.6879L57.71 57.4719C62.83 50.5599 67.2673 47.1039 71.022 47.1039C72.9847 47.1039 74.5633 47.7439 75.758 49.0239C77.038 50.2186 77.678 51.7119 77.678 53.5039L77.294 56.0639C79.342 53.0772 81.262 50.9012 83.054 49.5359C85.1873 47.9146 87.406 47.1039 89.71 47.1039C91.9287 47.1039 93.5927 47.7866 94.702 49.1519C95.8113 50.5172 96.366 52.1812 96.366 54.1439ZM151.881 33.6639C151.881 34.9439 151.454 36.1386 150.601 37.2479C149.748 38.3572 148.468 38.9119 146.761 38.9119C145.481 38.9119 144.372 38.5279 143.433 37.7599C142.921 37.0772 142.58 36.0106 142.409 34.5599C142.409 33.1092 142.878 31.8719 143.817 30.8479C144.756 29.8239 146.036 29.3119 147.657 29.3119C148.937 29.3119 149.961 29.7386 150.729 30.5919C151.497 31.3599 151.881 32.3839 151.881 33.6639ZM146.121 47.6159L131.529 75.5199C131.102 76.4586 130.804 77.5679 130.633 78.8479C130.633 80.8106 131.572 81.7919 133.449 81.7919C136.009 81.7919 139.081 79.7012 142.665 75.5199C144.201 73.8132 146.292 70.8692 148.937 66.6879L149.833 65.9199L150.217 65.7919L150.601 66.1759L150.217 67.4559C145.865 74.0266 142.452 78.2932 139.977 80.2559C137.502 82.1332 134.942 83.0719 132.297 83.0719C129.737 83.0719 127.774 82.3039 126.409 80.7679C125.129 79.1466 124.489 77.1839 124.489 74.8799C124.489 72.9172 124.873 71.0826 125.641 69.3759L133.577 53.3759L123.465 67.3279L122.825 67.9679L122.057 67.4559L122.569 66.0479L135.369 48.3839L146.121 47.6159ZM176.964 65.9199L177.348 66.5599L176.964 67.8399C173.124 73.3012 170.564 76.7572 169.284 78.2079C166.127 81.6212 162.841 83.3279 159.428 83.3279C157.636 83.3279 156.143 82.9012 154.948 82.0479C153.924 81.1092 153.412 79.6159 153.412 77.5679C153.412 74.5812 154.393 70.7412 156.356 66.0479C157.295 63.5732 158.617 60.6292 160.324 57.2159C162.031 53.7172 164.121 49.7492 166.596 45.3119L150.084 67.5839L149.444 68.2239L148.548 67.7119L149.188 66.4319L159.044 52.7359L170.052 38.3999L182.98 12.9279L192.324 12.2879L164.42 67.4559L161.348 74.3679C160.921 75.4772 160.58 76.4159 160.324 77.1839C160.153 77.9519 160.025 78.8052 159.94 79.7439C159.94 80.8532 160.367 81.4506 161.22 81.5359C163.439 81.5359 166.34 79.4452 169.924 75.2639L175.812 66.9439L176.964 65.9199ZM212.668 63.4879L220.348 48.3839L229.948 47.3599L211.388 83.7119C215.911 82.0052 219.452 79.9999 222.012 77.6959C223.292 76.5866 224.657 75.1359 226.108 73.3439C227.559 71.4666 229.137 69.1626 230.844 66.4319L231.74 65.7919L232.252 66.3039L231.868 67.5839C228.967 72.1919 226.236 75.6906 223.676 78.0799C221.969 79.6159 220.049 80.9812 217.916 82.1759C215.868 83.3706 213.479 84.4372 210.748 85.3759L199.356 106.88C197.308 110.891 194.193 113.963 190.012 116.096C185.831 118.229 181.607 119.296 177.34 119.296C174.865 119.296 172.689 118.4 170.812 116.608C168.849 114.901 167.868 112.725 167.868 110.08C167.868 105.301 170.513 100.907 175.804 96.8959C181.436 92.6292 189.713 89.1732 200.636 86.5279L209.34 70.0159C206.012 74.3679 203.281 77.4826 201.148 79.3599C198.076 82.0052 195.26 83.3279 192.7 83.3279C190.225 83.3279 188.177 82.7306 186.556 81.5359C185.02 80.3412 184.252 78.4212 184.252 75.7759C184.252 73.4719 184.679 71.0399 185.532 68.4799C186.385 65.9199 187.495 63.4879 188.86 61.1839L192.572 55.0399C193.084 54.1866 193.468 53.4186 193.724 52.7359C194.065 52.0532 194.279 51.4986 194.364 51.0719C194.364 50.3039 193.852 49.9199 192.828 49.9199C190.951 49.9199 187.623 53.1199 182.844 59.5199L176.444 68.3519L175.676 68.8639L175.036 68.0959L175.292 67.5839L183.868 55.4239C187.623 50.7306 190.737 48.3839 193.212 48.3839C195.601 48.3839 197.521 48.9812 198.972 50.1759C200.508 51.3706 201.276 53.3332 201.276 56.0639C201.276 57.2586 201.02 58.7519 200.508 60.5439C200.081 62.3359 199.057 64.8106 197.436 67.9679L193.468 75.1359C192.7 76.8426 192.231 78.2932 192.06 79.4879C192.06 80.5119 192.7 81.1092 193.98 81.2799C195.601 81.2799 198.076 79.6586 201.404 76.4159C204.817 73.1732 208.572 68.8639 212.668 63.4879ZM171.708 111.36C171.708 115.627 173.585 117.76 177.34 117.76C179.303 117.76 181.436 116.864 183.74 115.072C186.3 112.853 188.945 109.227 191.676 104.192L199.868 88.3199C190.823 90.8799 183.868 94.2079 179.004 98.3039C174.14 102.485 171.708 106.837 171.708 111.36Z" fill="#353535" fill-opacity="1.000000" fill-rule="evenodd"/>
</svg>
