<svg width="116.125999" height="59.648010" viewBox="0 0 116.126 59.648" fill="none" xmlns="http://www.w3.org/2000/svg" xmlns:xlink="http://www.w3.org/1999/xlink">
	<desc>
			Created with Pixso.
	</desc>
	<defs/>
	<path id="Emily" d="M24 19.072C24 19.8827 23.296 20.288 21.888 20.288C20.608 20.288 19.4133 20.096 18.304 19.712C17.1947 19.2853 16.1707 18.5387 15.232 17.472C12.4587 18.496 10.24 20.2453 8.576 22.72C6.74133 25.6213 5.824 29.12 5.824 33.216C5.824 35.4773 6.336 37.376 7.36 38.912C8.384 40.4053 9.94133 41.152 12.032 41.152C15.7013 41.152 18.8373 39.7227 21.44 36.864C23.744 34.304 24.896 31.6373 24.896 28.864C24.896 26.0053 23.552 24.576 20.864 24.576C19.2427 24.576 17.984 25.2374 17.088 26.56C16.32 27.84 15.936 29.3547 15.936 31.104C15.936 31.9573 15.9787 32.5973 16.064 33.024L16.512 34.432L16.64 34.816L16.512 35.008L16.256 34.88C14.6773 33.6853 13.888 31.8933 13.888 29.504C13.888 27.968 14.336 26.688 15.232 25.664C16.3413 24.4693 17.9627 23.872 20.096 23.872C23.7653 23.872 25.6 25.536 25.6 28.864C25.6 31.7654 24.3627 34.5813 21.888 37.312C19.2 40.3414 15.9787 41.856 12.224 41.856C8.256 41.856 5.16267 40.7467 2.944 38.528C0.981334 36.5653 4.76837e-07 34.1547 4.76837e-07 31.296C4.76837e-07 27.712 1.23733 24.5547 3.712 21.824C6.22933 19.0507 9.792 17.28 14.4 16.512L13.76 15.424L11.712 15.488C8.98133 15.488 6.72 15.104 4.928 14.336C2.58133 13.312 1.408 11.6907 1.408 9.47201C1.408 6.78401 2.624 4.54401 5.056 2.75201C7.53067 0.917347 10.688 1.52588e-05 14.528 1.52588e-05L14.784 0.0640144L14.912 0.192013L14.464 0.384014C12.8427 0.384014 11.3707 0.618679 10.048 1.08801C8.72533 1.51468 7.552 2.13335 6.528 2.94402C4.69333 4.39468 3.776 6.35735 3.776 8.83202C3.776 11.008 4.88533 12.6293 7.104 13.696C8.68267 14.4213 10.5813 14.784 12.8 14.784L13.504 14.784L13.056 13.568L12.992 12.288C12.992 9.68535 14.016 7.42402 16.064 5.50401C18.4107 3.41335 21.4827 2.36802 25.28 2.36802C26.816 2.36802 27.968 2.68801 28.736 3.32801C29.504 3.92535 29.888 4.73602 29.888 5.76001C29.888 7.76535 28.864 9.66401 26.816 11.456C24.512 13.4613 21.376 14.656 17.408 15.04L17.536 16.32C19.712 16.32 21.3973 16.6613 22.592 17.344C23.4453 17.856 23.9147 18.432 24 19.072ZM21.824 19.712C22.6347 19.712 23.0613 19.4773 23.104 19.008C23.104 18.5813 22.6347 18.1547 21.696 17.728C20.8 17.2587 19.7973 17.024 18.688 17.024L17.728 17.088C18.3253 18.8373 19.6907 19.712 21.824 19.712ZM26.176 3.26402C22.464 3.26402 19.84 5.39735 18.304 9.66401L17.536 12.352L17.344 14.528C20.8427 14.144 23.68 13.0773 25.856 11.328C28.032 9.53601 29.12 7.76535 29.12 6.01601C29.12 5.20535 28.864 4.54401 28.352 4.03201C27.8827 3.52002 27.1573 3.26402 26.176 3.26402ZM48.183 27.072L48.055 28.032C48.951 26.88 49.8683 25.8987 50.807 25.088C52.0017 24.1067 53.0897 23.616 54.071 23.616C54.967 23.616 55.671 23.9573 56.183 24.64C56.695 25.28 56.951 26.1547 56.951 27.264C56.951 29.2267 56.2683 31.168 54.903 33.088C54.5617 33.5574 54.199 34.112 53.815 34.752C53.431 35.3493 53.111 35.904 52.855 36.416C52.3857 37.44 52.151 38.336 52.151 39.104C52.151 40.0854 52.663 40.576 53.687 40.576C54.6683 40.576 55.863 39.8507 57.271 38.4C58.2097 37.376 59.4683 35.648 61.047 33.216L61.623 32.832L61.815 33.088C61.7297 33.5147 61.6443 33.7707 61.559 33.856C59.895 36.416 58.5297 38.2293 57.463 39.296C55.8843 40.7893 54.2417 41.536 52.535 41.536C51.3403 41.536 50.3803 41.2587 49.655 40.704C48.9723 40.1493 48.631 39.2533 48.631 38.016C48.631 36.6933 48.9723 35.3493 49.655 33.984L51.255 31.104L53.303 27.776C53.943 26.7094 54.3057 25.856 54.391 25.216C54.391 24.704 54.071 24.448 53.431 24.448C52.5777 24.448 51.4683 25.1307 50.103 26.496C48.823 27.8613 47.5857 29.568 46.391 31.616L41.527 41.152L36.983 41.152L44.151 27.136L44.407 26.496C44.663 25.8987 44.791 25.472 44.791 25.216C44.791 24.704 44.4923 24.4267 43.895 24.384C43.0417 24.384 41.847 25.2373 40.311 26.944C39.287 28.0533 38.2843 29.3973 37.303 30.976L32.055 41.152L27.383 41.152L34.935 26.944L35.383 25.92L35.639 25.088C35.639 24.7893 35.4043 24.6187 34.935 24.576C33.6977 24.576 31.8843 26.112 29.495 29.184L26.167 33.792L25.847 33.984L25.463 33.664L25.655 33.344L28.855 28.736C31.415 25.28 33.6337 23.552 35.511 23.552C36.4923 23.552 37.2817 23.872 37.879 24.512C38.519 25.1093 38.839 25.856 38.839 26.752L38.647 28.032C39.671 26.5387 40.631 25.4507 41.527 24.768C42.5937 23.9573 43.703 23.552 44.855 23.552C45.9643 23.552 46.7963 23.8933 47.351 24.576C47.9057 25.2587 48.183 26.0907 48.183 27.072ZM75.9405 16.832C75.9405 17.472 75.7272 18.0693 75.3005 18.624C74.8738 19.1787 74.2338 19.456 73.3805 19.456C72.7405 19.456 72.1858 19.264 71.7165 18.88C71.4605 18.5387 71.2898 18.0053 71.2045 17.28C71.2045 16.5547 71.4392 15.936 71.9085 15.424C72.3778 14.912 73.0178 14.656 73.8285 14.656C74.4685 14.656 74.9805 14.8693 75.3645 15.296C75.7485 15.68 75.9405 16.192 75.9405 16.832ZM73.0605 23.808L65.7645 37.76C65.5512 38.2293 65.4018 38.784 65.3165 39.424C65.3165 40.4053 65.7858 40.896 66.7245 40.896C68.0045 40.896 69.5405 39.8507 71.3325 37.76C72.1005 36.9067 73.1458 35.4347 74.4685 33.344L74.9165 32.96L75.1085 32.896L75.3005 33.088L75.1085 33.728C72.9325 37.0133 71.2258 39.1467 69.9885 40.128C68.7512 41.0667 67.4712 41.536 66.1485 41.536C64.8685 41.536 63.8872 41.152 63.2045 40.384C62.5645 39.5733 62.2445 38.592 62.2445 37.44C62.2445 36.4587 62.4365 35.5413 62.8205 34.688L66.7885 26.688L61.7325 33.664L61.4125 33.984L61.0285 33.728L61.2845 33.024L67.6845 24.192L73.0605 23.808ZM88.482 32.96L88.674 33.28L88.482 33.92C86.562 36.6507 85.282 38.3787 84.642 39.104C83.0633 40.8107 81.4207 41.664 79.714 41.664C78.818 41.664 78.0713 41.4507 77.474 41.024C76.962 40.5547 76.706 39.808 76.706 38.784C76.706 37.2907 77.1967 35.3707 78.178 33.024C78.6473 31.7867 79.3087 30.3147 80.162 28.608C81.0153 26.8587 82.0607 24.8747 83.298 22.656L75.042 33.792L74.722 34.112L74.274 33.856L74.594 33.216L79.522 26.368L85.026 19.2L91.49 6.46401L96.162 6.14401L82.21 33.728L80.674 37.184C80.4607 37.7387 80.29 38.208 80.162 38.592C80.0767 38.976 80.0127 39.4027 79.97 39.872C79.97 40.4267 80.1833 40.7253 80.61 40.768C81.7193 40.768 83.17 39.7227 84.962 37.632L87.906 33.472L88.482 32.96ZM106.334 31.744L110.174 24.192L114.974 23.68L105.694 41.856C107.955 41.0027 109.726 40 111.006 38.848C111.646 38.2934 112.329 37.568 113.054 36.672C113.779 35.7333 114.569 34.5813 115.422 33.216L115.87 32.896L116.126 33.152L115.934 33.792C114.483 36.096 113.118 37.8453 111.838 39.04C110.985 39.808 110.025 40.4907 108.958 41.088C107.934 41.6853 106.739 42.2187 105.374 42.688L99.678 53.44C98.654 55.4454 97.0967 56.9813 95.006 58.048C92.9153 59.1147 90.8033 59.648 88.67 59.648C87.4327 59.648 86.3447 59.2 85.406 58.304C84.4247 57.4507 83.934 56.3627 83.934 55.04C83.934 52.6507 85.2567 50.4534 87.902 48.448C90.718 46.3147 94.8567 44.5867 100.318 43.264L104.67 35.008C103.006 37.184 101.641 38.7413 100.574 39.68C99.038 41.0027 97.63 41.664 96.35 41.664C95.1127 41.664 94.0887 41.3653 93.278 40.768C92.51 40.1707 92.126 39.2107 92.126 37.888C92.126 36.736 92.3393 35.52 92.766 34.24C93.1927 32.96 93.7473 31.744 94.43 30.592L96.286 27.52C96.542 27.0933 96.734 26.7094 96.862 26.368C97.0327 26.0267 97.1393 25.7493 97.182 25.536C97.182 25.152 96.926 24.96 96.414 24.96C95.4753 24.96 93.8113 26.56 91.422 29.76L88.222 34.176L87.838 34.432L87.518 34.048L87.646 33.792L91.934 27.712C93.8113 25.3653 95.3687 24.192 96.606 24.192C97.8007 24.192 98.7607 24.4907 99.486 25.088C100.254 25.6853 100.638 26.6667 100.638 28.032C100.638 28.6293 100.51 29.376 100.254 30.272C100.041 31.168 99.5287 32.4053 98.718 33.984L96.734 37.568C96.35 38.4213 96.1153 39.1467 96.03 39.744C96.03 40.256 96.35 40.5547 96.99 40.64C97.8007 40.64 99.038 39.8293 100.702 38.208C102.409 36.5867 104.286 34.432 106.334 31.744ZM85.854 55.68C85.854 57.8134 86.7927 58.88 88.67 58.88C89.6513 58.88 90.718 58.432 91.87 57.536C93.15 56.4267 94.4727 54.6133 95.838 52.096L99.934 44.16C95.4113 45.44 91.934 47.104 89.502 49.152C87.07 51.2427 85.854 53.4187 85.854 55.68Z" fill="#FFFFFF" fill-opacity="1.000000" fill-rule="evenodd"/>
</svg>
